<?xml version="1.0" encoding="UTF-8"?>
<svg width="327px" height="24px" viewBox="0 0 327 24" version="1.1" xmlns="http://www.w3.org/2000/svg" xmlns:xlink="http://www.w3.org/1999/xlink">
    <!-- Generator: Sketch 63.1 (92452) - https://sketch.com -->
    <title>input_password/normal</title>
    <desc>Created with Sketch.</desc>
    <g id="iPhone-7" stroke="none" stroke-width="1" fill="none" fill-rule="evenodd">
        <g id="01-Login-normal" transform="translate(-24.000000, -380.000000)">
            <g id="input_password/normal" transform="translate(24.000000, 356.000000)">
                <g>
                    <g id="icon/visibility--on" opacity="0.75" transform="translate(309.000000, 22.000000)">
                        <g id="Group">
                            <polygon id="Shape" points="0 0 18 0 18 18 0 18"></polygon>
                            <path d="M9,3.375 C5.25,3.375 2.0475,5.7075 0.75,9 C2.0475,12.2925 5.25,14.625 9,14.625 C12.75,14.625 15.9525,12.2925 17.25,9 C15.9525,5.7075 12.75,3.375 9,3.375 Z M9,12.75 C6.93,12.75 5.25,11.07 5.25,9 C5.25,6.93 6.93,5.25 9,5.25 C11.07,5.25 12.75,6.93 12.75,9 C12.75,11.07 11.07,12.75 9,12.75 Z" id="Shape" stroke="#FFFFFF" fill-rule="nonzero"></path>
                        </g>
                    </g>
                    <text id="input__field" font-family="Helvetica" font-size="14" font-weight="normal" fill="#FFFFFF" fill-opacity="0.75">
                        <tspan x="0" y="36">Parola</tspan>
                    </text>
                    <rect id="input__underline" fill-opacity="0.75" fill="#FFFFFF" x="0" y="47" width="327" height="1"></rect>
                </g>
            </g>
        </g>
    </g>
</svg>